<mxfile host="app.diagrams.net" modified="2024-04-08T14:23:31.660Z" agent="Mozilla/5.0 (Windows NT 10.0; Win64; x64) AppleWebKit/537.36 (KHTML, like Gecko) Chrome/109.0.0.0 Safari/537.36" etag="Q9UTIg7nyCsqwuwZ_55j" version="24.2.2" type="github">
  <diagram id="R2lEEEUBdFMjLlhIrx00" name="Page-1">
    <mxGraphModel dx="5330" dy="2908" grid="1" gridSize="10" guides="1" tooltips="1" connect="1" arrows="1" fold="1" page="1" pageScale="1" pageWidth="850" pageHeight="1100" math="0" shadow="0" extFonts="Permanent Marker^https://fonts.googleapis.com/css?family=Permanent+Marker">
      <root>
        <mxCell id="0" />
        <mxCell id="1" parent="0" />
        <mxCell id="C-vyLk0tnHw3VtMMgP7b-2" value="Contact" style="shape=table;startSize=30;container=1;collapsible=1;childLayout=tableLayout;fixedRows=1;rowLines=0;fontStyle=1;align=center;resizeLast=1;" parent="1" vertex="1">
          <mxGeometry x="260" y="120" width="180" height="180" as="geometry" />
        </mxCell>
        <mxCell id="C-vyLk0tnHw3VtMMgP7b-3" value="" style="shape=partialRectangle;collapsible=0;dropTarget=0;pointerEvents=0;fillColor=none;points=[[0,0.5],[1,0.5]];portConstraint=eastwest;top=0;left=0;right=0;bottom=1;" parent="C-vyLk0tnHw3VtMMgP7b-2" vertex="1">
          <mxGeometry y="30" width="180" height="30" as="geometry" />
        </mxCell>
        <mxCell id="C-vyLk0tnHw3VtMMgP7b-4" value="PK" style="shape=partialRectangle;overflow=hidden;connectable=0;fillColor=none;top=0;left=0;bottom=0;right=0;fontStyle=1;" parent="C-vyLk0tnHw3VtMMgP7b-3" vertex="1">
          <mxGeometry width="30" height="30" as="geometry">
            <mxRectangle width="30" height="30" as="alternateBounds" />
          </mxGeometry>
        </mxCell>
        <mxCell id="C-vyLk0tnHw3VtMMgP7b-5" value="id NOT NULL " style="shape=partialRectangle;overflow=hidden;connectable=0;fillColor=none;top=0;left=0;bottom=0;right=0;align=left;spacingLeft=6;fontStyle=5;" parent="C-vyLk0tnHw3VtMMgP7b-3" vertex="1">
          <mxGeometry x="30" width="150" height="30" as="geometry">
            <mxRectangle width="150" height="30" as="alternateBounds" />
          </mxGeometry>
        </mxCell>
        <mxCell id="C-vyLk0tnHw3VtMMgP7b-6" value="" style="shape=partialRectangle;collapsible=0;dropTarget=0;pointerEvents=0;fillColor=none;points=[[0,0.5],[1,0.5]];portConstraint=eastwest;top=0;left=0;right=0;bottom=0;" parent="C-vyLk0tnHw3VtMMgP7b-2" vertex="1">
          <mxGeometry y="60" width="180" height="30" as="geometry" />
        </mxCell>
        <mxCell id="C-vyLk0tnHw3VtMMgP7b-7" value="" style="shape=partialRectangle;overflow=hidden;connectable=0;fillColor=none;top=0;left=0;bottom=0;right=0;" parent="C-vyLk0tnHw3VtMMgP7b-6" vertex="1">
          <mxGeometry width="30" height="30" as="geometry">
            <mxRectangle width="30" height="30" as="alternateBounds" />
          </mxGeometry>
        </mxCell>
        <mxCell id="C-vyLk0tnHw3VtMMgP7b-8" value="first_name" style="shape=partialRectangle;overflow=hidden;connectable=0;fillColor=none;top=0;left=0;bottom=0;right=0;align=left;spacingLeft=6;" parent="C-vyLk0tnHw3VtMMgP7b-6" vertex="1">
          <mxGeometry x="30" width="150" height="30" as="geometry">
            <mxRectangle width="150" height="30" as="alternateBounds" />
          </mxGeometry>
        </mxCell>
        <mxCell id="C-vyLk0tnHw3VtMMgP7b-9" value="" style="shape=partialRectangle;collapsible=0;dropTarget=0;pointerEvents=0;fillColor=none;points=[[0,0.5],[1,0.5]];portConstraint=eastwest;top=0;left=0;right=0;bottom=0;" parent="C-vyLk0tnHw3VtMMgP7b-2" vertex="1">
          <mxGeometry y="90" width="180" height="30" as="geometry" />
        </mxCell>
        <mxCell id="C-vyLk0tnHw3VtMMgP7b-10" value="" style="shape=partialRectangle;overflow=hidden;connectable=0;fillColor=none;top=0;left=0;bottom=0;right=0;" parent="C-vyLk0tnHw3VtMMgP7b-9" vertex="1">
          <mxGeometry width="30" height="30" as="geometry">
            <mxRectangle width="30" height="30" as="alternateBounds" />
          </mxGeometry>
        </mxCell>
        <mxCell id="C-vyLk0tnHw3VtMMgP7b-11" value="last_name" style="shape=partialRectangle;overflow=hidden;connectable=0;fillColor=none;top=0;left=0;bottom=0;right=0;align=left;spacingLeft=6;" parent="C-vyLk0tnHw3VtMMgP7b-9" vertex="1">
          <mxGeometry x="30" width="150" height="30" as="geometry">
            <mxRectangle width="150" height="30" as="alternateBounds" />
          </mxGeometry>
        </mxCell>
        <mxCell id="AA0x2wm6orCLK1CSmLFN-80" style="shape=partialRectangle;collapsible=0;dropTarget=0;pointerEvents=0;fillColor=none;points=[[0,0.5],[1,0.5]];portConstraint=eastwest;top=0;left=0;right=0;bottom=0;" parent="C-vyLk0tnHw3VtMMgP7b-2" vertex="1">
          <mxGeometry y="120" width="180" height="30" as="geometry" />
        </mxCell>
        <mxCell id="AA0x2wm6orCLK1CSmLFN-81" style="shape=partialRectangle;overflow=hidden;connectable=0;fillColor=none;top=0;left=0;bottom=0;right=0;" parent="AA0x2wm6orCLK1CSmLFN-80" vertex="1">
          <mxGeometry width="30" height="30" as="geometry">
            <mxRectangle width="30" height="30" as="alternateBounds" />
          </mxGeometry>
        </mxCell>
        <mxCell id="AA0x2wm6orCLK1CSmLFN-82" value="profile_photo" style="shape=partialRectangle;overflow=hidden;connectable=0;fillColor=none;top=0;left=0;bottom=0;right=0;align=left;spacingLeft=6;" parent="AA0x2wm6orCLK1CSmLFN-80" vertex="1">
          <mxGeometry x="30" width="150" height="30" as="geometry">
            <mxRectangle width="150" height="30" as="alternateBounds" />
          </mxGeometry>
        </mxCell>
        <mxCell id="AA0x2wm6orCLK1CSmLFN-83" style="shape=partialRectangle;collapsible=0;dropTarget=0;pointerEvents=0;fillColor=none;points=[[0,0.5],[1,0.5]];portConstraint=eastwest;top=0;left=0;right=0;bottom=0;" parent="C-vyLk0tnHw3VtMMgP7b-2" vertex="1">
          <mxGeometry y="150" width="180" height="30" as="geometry" />
        </mxCell>
        <mxCell id="AA0x2wm6orCLK1CSmLFN-84" style="shape=partialRectangle;overflow=hidden;connectable=0;fillColor=none;top=0;left=0;bottom=0;right=0;" parent="AA0x2wm6orCLK1CSmLFN-83" vertex="1">
          <mxGeometry width="30" height="30" as="geometry">
            <mxRectangle width="30" height="30" as="alternateBounds" />
          </mxGeometry>
        </mxCell>
        <mxCell id="AA0x2wm6orCLK1CSmLFN-85" value="phone_number" style="shape=partialRectangle;overflow=hidden;connectable=0;fillColor=none;top=0;left=0;bottom=0;right=0;align=left;spacingLeft=6;" parent="AA0x2wm6orCLK1CSmLFN-83" vertex="1">
          <mxGeometry x="30" width="150" height="30" as="geometry">
            <mxRectangle width="150" height="30" as="alternateBounds" />
          </mxGeometry>
        </mxCell>
        <mxCell id="C-vyLk0tnHw3VtMMgP7b-13" value="group_contact" style="shape=table;startSize=30;container=1;collapsible=1;childLayout=tableLayout;fixedRows=1;rowLines=0;fontStyle=1;align=center;resizeLast=1;" parent="1" vertex="1">
          <mxGeometry x="290" y="440" width="250" height="150" as="geometry">
            <mxRectangle x="450" y="280" width="100" height="30" as="alternateBounds" />
          </mxGeometry>
        </mxCell>
        <mxCell id="C-vyLk0tnHw3VtMMgP7b-14" value="" style="shape=partialRectangle;collapsible=0;dropTarget=0;pointerEvents=0;fillColor=none;points=[[0,0.5],[1,0.5]];portConstraint=eastwest;top=0;left=0;right=0;bottom=1;" parent="C-vyLk0tnHw3VtMMgP7b-13" vertex="1">
          <mxGeometry y="30" width="250" height="30" as="geometry" />
        </mxCell>
        <mxCell id="C-vyLk0tnHw3VtMMgP7b-15" value="Fk1" style="shape=partialRectangle;overflow=hidden;connectable=0;fillColor=none;top=0;left=0;bottom=0;right=0;fontStyle=1;" parent="C-vyLk0tnHw3VtMMgP7b-14" vertex="1">
          <mxGeometry width="30" height="30" as="geometry">
            <mxRectangle width="30" height="30" as="alternateBounds" />
          </mxGeometry>
        </mxCell>
        <mxCell id="C-vyLk0tnHw3VtMMgP7b-16" value="contact_id not null" style="shape=partialRectangle;overflow=hidden;connectable=0;fillColor=none;top=0;left=0;bottom=0;right=0;align=left;spacingLeft=6;fontStyle=5;" parent="C-vyLk0tnHw3VtMMgP7b-14" vertex="1">
          <mxGeometry x="30" width="220" height="30" as="geometry">
            <mxRectangle width="220" height="30" as="alternateBounds" />
          </mxGeometry>
        </mxCell>
        <mxCell id="C-vyLk0tnHw3VtMMgP7b-17" value="" style="shape=partialRectangle;collapsible=0;dropTarget=0;pointerEvents=0;fillColor=none;points=[[0,0.5],[1,0.5]];portConstraint=eastwest;top=0;left=0;right=0;bottom=0;" parent="C-vyLk0tnHw3VtMMgP7b-13" vertex="1">
          <mxGeometry y="60" width="250" height="30" as="geometry" />
        </mxCell>
        <mxCell id="C-vyLk0tnHw3VtMMgP7b-18" value="FK2" style="shape=partialRectangle;overflow=hidden;connectable=0;fillColor=none;top=0;left=0;bottom=0;right=0;" parent="C-vyLk0tnHw3VtMMgP7b-17" vertex="1">
          <mxGeometry width="30" height="30" as="geometry">
            <mxRectangle width="30" height="30" as="alternateBounds" />
          </mxGeometry>
        </mxCell>
        <mxCell id="C-vyLk0tnHw3VtMMgP7b-19" value="group_id not null" style="shape=partialRectangle;overflow=hidden;connectable=0;fillColor=none;top=0;left=0;bottom=0;right=0;align=left;spacingLeft=6;fontStyle=4" parent="C-vyLk0tnHw3VtMMgP7b-17" vertex="1">
          <mxGeometry x="30" width="220" height="30" as="geometry">
            <mxRectangle width="220" height="30" as="alternateBounds" />
          </mxGeometry>
        </mxCell>
        <mxCell id="C-vyLk0tnHw3VtMMgP7b-20" value="" style="shape=partialRectangle;collapsible=0;dropTarget=0;pointerEvents=0;fillColor=none;points=[[0,0.5],[1,0.5]];portConstraint=eastwest;top=0;left=0;right=0;bottom=0;" parent="C-vyLk0tnHw3VtMMgP7b-13" vertex="1">
          <mxGeometry y="90" width="250" height="30" as="geometry" />
        </mxCell>
        <mxCell id="C-vyLk0tnHw3VtMMgP7b-21" value="" style="shape=partialRectangle;overflow=hidden;connectable=0;fillColor=none;top=0;left=0;bottom=0;right=0;" parent="C-vyLk0tnHw3VtMMgP7b-20" vertex="1">
          <mxGeometry width="30" height="30" as="geometry">
            <mxRectangle width="30" height="30" as="alternateBounds" />
          </mxGeometry>
        </mxCell>
        <mxCell id="C-vyLk0tnHw3VtMMgP7b-22" value="joined_datetime" style="shape=partialRectangle;overflow=hidden;connectable=0;fillColor=none;top=0;left=0;bottom=0;right=0;align=left;spacingLeft=6;" parent="C-vyLk0tnHw3VtMMgP7b-20" vertex="1">
          <mxGeometry x="30" width="220" height="30" as="geometry">
            <mxRectangle width="220" height="30" as="alternateBounds" />
          </mxGeometry>
        </mxCell>
        <mxCell id="AA0x2wm6orCLK1CSmLFN-86" style="shape=partialRectangle;collapsible=0;dropTarget=0;pointerEvents=0;fillColor=none;points=[[0,0.5],[1,0.5]];portConstraint=eastwest;top=0;left=0;right=0;bottom=0;" parent="C-vyLk0tnHw3VtMMgP7b-13" vertex="1">
          <mxGeometry y="120" width="250" height="30" as="geometry" />
        </mxCell>
        <mxCell id="AA0x2wm6orCLK1CSmLFN-87" style="shape=partialRectangle;overflow=hidden;connectable=0;fillColor=none;top=0;left=0;bottom=0;right=0;" parent="AA0x2wm6orCLK1CSmLFN-86" vertex="1">
          <mxGeometry width="30" height="30" as="geometry">
            <mxRectangle width="30" height="30" as="alternateBounds" />
          </mxGeometry>
        </mxCell>
        <mxCell id="AA0x2wm6orCLK1CSmLFN-88" value="left_datetime" style="shape=partialRectangle;overflow=hidden;connectable=0;fillColor=none;top=0;left=0;bottom=0;right=0;align=left;spacingLeft=6;" parent="AA0x2wm6orCLK1CSmLFN-86" vertex="1">
          <mxGeometry x="30" width="220" height="30" as="geometry">
            <mxRectangle width="220" height="30" as="alternateBounds" />
          </mxGeometry>
        </mxCell>
        <mxCell id="C-vyLk0tnHw3VtMMgP7b-23" value="Message" style="shape=table;startSize=30;container=1;collapsible=1;childLayout=tableLayout;fixedRows=1;rowLines=0;fontStyle=1;align=center;resizeLast=1;" parent="1" vertex="1">
          <mxGeometry x="-160" y="110" width="250" height="240" as="geometry" />
        </mxCell>
        <mxCell id="C-vyLk0tnHw3VtMMgP7b-24" value="" style="shape=partialRectangle;collapsible=0;dropTarget=0;pointerEvents=0;fillColor=none;points=[[0,0.5],[1,0.5]];portConstraint=eastwest;top=0;left=0;right=0;bottom=1;" parent="C-vyLk0tnHw3VtMMgP7b-23" vertex="1">
          <mxGeometry y="30" width="250" height="30" as="geometry" />
        </mxCell>
        <mxCell id="C-vyLk0tnHw3VtMMgP7b-25" value="PK" style="shape=partialRectangle;overflow=hidden;connectable=0;fillColor=none;top=0;left=0;bottom=0;right=0;fontStyle=1;" parent="C-vyLk0tnHw3VtMMgP7b-24" vertex="1">
          <mxGeometry width="30" height="30" as="geometry">
            <mxRectangle width="30" height="30" as="alternateBounds" />
          </mxGeometry>
        </mxCell>
        <mxCell id="C-vyLk0tnHw3VtMMgP7b-26" value="_id NOT NULL " style="shape=partialRectangle;overflow=hidden;connectable=0;fillColor=none;top=0;left=0;bottom=0;right=0;align=left;spacingLeft=6;fontStyle=5;" parent="C-vyLk0tnHw3VtMMgP7b-24" vertex="1">
          <mxGeometry x="30" width="220" height="30" as="geometry">
            <mxRectangle width="220" height="30" as="alternateBounds" />
          </mxGeometry>
        </mxCell>
        <mxCell id="C-vyLk0tnHw3VtMMgP7b-27" value="" style="shape=partialRectangle;collapsible=0;dropTarget=0;pointerEvents=0;fillColor=none;points=[[0,0.5],[1,0.5]];portConstraint=eastwest;top=0;left=0;right=0;bottom=0;" parent="C-vyLk0tnHw3VtMMgP7b-23" vertex="1">
          <mxGeometry y="60" width="250" height="30" as="geometry" />
        </mxCell>
        <mxCell id="C-vyLk0tnHw3VtMMgP7b-28" value="" style="shape=partialRectangle;overflow=hidden;connectable=0;fillColor=none;top=0;left=0;bottom=0;right=0;" parent="C-vyLk0tnHw3VtMMgP7b-27" vertex="1">
          <mxGeometry width="30" height="30" as="geometry">
            <mxRectangle width="30" height="30" as="alternateBounds" />
          </mxGeometry>
        </mxCell>
        <mxCell id="C-vyLk0tnHw3VtMMgP7b-29" value="from_number" style="shape=partialRectangle;overflow=hidden;connectable=0;fillColor=none;top=0;left=0;bottom=0;right=0;align=left;spacingLeft=6;" parent="C-vyLk0tnHw3VtMMgP7b-27" vertex="1">
          <mxGeometry x="30" width="220" height="30" as="geometry">
            <mxRectangle width="220" height="30" as="alternateBounds" />
          </mxGeometry>
        </mxCell>
        <mxCell id="AA0x2wm6orCLK1CSmLFN-65" style="shape=partialRectangle;collapsible=0;dropTarget=0;pointerEvents=0;fillColor=none;points=[[0,0.5],[1,0.5]];portConstraint=eastwest;top=0;left=0;right=0;bottom=0;" parent="C-vyLk0tnHw3VtMMgP7b-23" vertex="1">
          <mxGeometry y="90" width="250" height="30" as="geometry" />
        </mxCell>
        <mxCell id="AA0x2wm6orCLK1CSmLFN-66" style="shape=partialRectangle;overflow=hidden;connectable=0;fillColor=none;top=0;left=0;bottom=0;right=0;" parent="AA0x2wm6orCLK1CSmLFN-65" vertex="1">
          <mxGeometry width="30" height="30" as="geometry">
            <mxRectangle width="30" height="30" as="alternateBounds" />
          </mxGeometry>
        </mxCell>
        <mxCell id="AA0x2wm6orCLK1CSmLFN-67" value="to_number" style="shape=partialRectangle;overflow=hidden;connectable=0;fillColor=none;top=0;left=0;bottom=0;right=0;align=left;spacingLeft=6;" parent="AA0x2wm6orCLK1CSmLFN-65" vertex="1">
          <mxGeometry x="30" width="220" height="30" as="geometry">
            <mxRectangle width="220" height="30" as="alternateBounds" />
          </mxGeometry>
        </mxCell>
        <mxCell id="AA0x2wm6orCLK1CSmLFN-68" style="shape=partialRectangle;collapsible=0;dropTarget=0;pointerEvents=0;fillColor=none;points=[[0,0.5],[1,0.5]];portConstraint=eastwest;top=0;left=0;right=0;bottom=0;" parent="C-vyLk0tnHw3VtMMgP7b-23" vertex="1">
          <mxGeometry y="120" width="250" height="30" as="geometry" />
        </mxCell>
        <mxCell id="AA0x2wm6orCLK1CSmLFN-69" style="shape=partialRectangle;overflow=hidden;connectable=0;fillColor=none;top=0;left=0;bottom=0;right=0;" parent="AA0x2wm6orCLK1CSmLFN-68" vertex="1">
          <mxGeometry width="30" height="30" as="geometry">
            <mxRectangle width="30" height="30" as="alternateBounds" />
          </mxGeometry>
        </mxCell>
        <mxCell id="AA0x2wm6orCLK1CSmLFN-70" value="message_text" style="shape=partialRectangle;overflow=hidden;connectable=0;fillColor=none;top=0;left=0;bottom=0;right=0;align=left;spacingLeft=6;" parent="AA0x2wm6orCLK1CSmLFN-68" vertex="1">
          <mxGeometry x="30" width="220" height="30" as="geometry">
            <mxRectangle width="220" height="30" as="alternateBounds" />
          </mxGeometry>
        </mxCell>
        <mxCell id="AA0x2wm6orCLK1CSmLFN-71" style="shape=partialRectangle;collapsible=0;dropTarget=0;pointerEvents=0;fillColor=none;points=[[0,0.5],[1,0.5]];portConstraint=eastwest;top=0;left=0;right=0;bottom=0;" parent="C-vyLk0tnHw3VtMMgP7b-23" vertex="1">
          <mxGeometry y="150" width="250" height="30" as="geometry" />
        </mxCell>
        <mxCell id="AA0x2wm6orCLK1CSmLFN-72" style="shape=partialRectangle;overflow=hidden;connectable=0;fillColor=none;top=0;left=0;bottom=0;right=0;" parent="AA0x2wm6orCLK1CSmLFN-71" vertex="1">
          <mxGeometry width="30" height="30" as="geometry">
            <mxRectangle width="30" height="30" as="alternateBounds" />
          </mxGeometry>
        </mxCell>
        <mxCell id="AA0x2wm6orCLK1CSmLFN-73" value="set_datetime" style="shape=partialRectangle;overflow=hidden;connectable=0;fillColor=none;top=0;left=0;bottom=0;right=0;align=left;spacingLeft=6;" parent="AA0x2wm6orCLK1CSmLFN-71" vertex="1">
          <mxGeometry x="30" width="220" height="30" as="geometry">
            <mxRectangle width="220" height="30" as="alternateBounds" />
          </mxGeometry>
        </mxCell>
        <mxCell id="AA0x2wm6orCLK1CSmLFN-74" style="shape=partialRectangle;collapsible=0;dropTarget=0;pointerEvents=0;fillColor=none;points=[[0,0.5],[1,0.5]];portConstraint=eastwest;top=0;left=0;right=0;bottom=0;" parent="C-vyLk0tnHw3VtMMgP7b-23" vertex="1">
          <mxGeometry y="180" width="250" height="30" as="geometry" />
        </mxCell>
        <mxCell id="AA0x2wm6orCLK1CSmLFN-75" value="FK1" style="shape=partialRectangle;overflow=hidden;connectable=0;fillColor=none;top=0;left=0;bottom=0;right=0;" parent="AA0x2wm6orCLK1CSmLFN-74" vertex="1">
          <mxGeometry width="30" height="30" as="geometry">
            <mxRectangle width="30" height="30" as="alternateBounds" />
          </mxGeometry>
        </mxCell>
        <mxCell id="AA0x2wm6orCLK1CSmLFN-76" value="contact_id" style="shape=partialRectangle;overflow=hidden;connectable=0;fillColor=none;top=0;left=0;bottom=0;right=0;align=left;spacingLeft=6;" parent="AA0x2wm6orCLK1CSmLFN-74" vertex="1">
          <mxGeometry x="30" width="220" height="30" as="geometry">
            <mxRectangle width="220" height="30" as="alternateBounds" />
          </mxGeometry>
        </mxCell>
        <mxCell id="AA0x2wm6orCLK1CSmLFN-77" style="shape=partialRectangle;collapsible=0;dropTarget=0;pointerEvents=0;fillColor=none;points=[[0,0.5],[1,0.5]];portConstraint=eastwest;top=0;left=0;right=0;bottom=0;" parent="C-vyLk0tnHw3VtMMgP7b-23" vertex="1">
          <mxGeometry y="210" width="250" height="30" as="geometry" />
        </mxCell>
        <mxCell id="AA0x2wm6orCLK1CSmLFN-78" value="FK2" style="shape=partialRectangle;overflow=hidden;connectable=0;fillColor=none;top=0;left=0;bottom=0;right=0;" parent="AA0x2wm6orCLK1CSmLFN-77" vertex="1">
          <mxGeometry width="30" height="30" as="geometry">
            <mxRectangle width="30" height="30" as="alternateBounds" />
          </mxGeometry>
        </mxCell>
        <mxCell id="AA0x2wm6orCLK1CSmLFN-79" value="group_id" style="shape=partialRectangle;overflow=hidden;connectable=0;fillColor=none;top=0;left=0;bottom=0;right=0;align=left;spacingLeft=6;" parent="AA0x2wm6orCLK1CSmLFN-77" vertex="1">
          <mxGeometry x="30" width="220" height="30" as="geometry">
            <mxRectangle width="220" height="30" as="alternateBounds" />
          </mxGeometry>
        </mxCell>
        <mxCell id="AA0x2wm6orCLK1CSmLFN-34" value="Group" style="shape=table;startSize=30;container=1;collapsible=1;childLayout=tableLayout;fixedRows=1;rowLines=0;fontStyle=1;align=center;resizeLast=1;" parent="1" vertex="1">
          <mxGeometry x="-160" y="530" width="250" height="100" as="geometry" />
        </mxCell>
        <mxCell id="AA0x2wm6orCLK1CSmLFN-35" value="" style="shape=partialRectangle;collapsible=0;dropTarget=0;pointerEvents=0;fillColor=none;points=[[0,0.5],[1,0.5]];portConstraint=eastwest;top=0;left=0;right=0;bottom=1;" parent="AA0x2wm6orCLK1CSmLFN-34" vertex="1">
          <mxGeometry y="30" width="250" height="30" as="geometry" />
        </mxCell>
        <mxCell id="AA0x2wm6orCLK1CSmLFN-36" value="PK" style="shape=partialRectangle;overflow=hidden;connectable=0;fillColor=none;top=0;left=0;bottom=0;right=0;fontStyle=1;" parent="AA0x2wm6orCLK1CSmLFN-35" vertex="1">
          <mxGeometry width="30" height="30" as="geometry">
            <mxRectangle width="30" height="30" as="alternateBounds" />
          </mxGeometry>
        </mxCell>
        <mxCell id="AA0x2wm6orCLK1CSmLFN-37" value="id  NOT NULL " style="shape=partialRectangle;overflow=hidden;connectable=0;fillColor=none;top=0;left=0;bottom=0;right=0;align=left;spacingLeft=6;fontStyle=5;" parent="AA0x2wm6orCLK1CSmLFN-35" vertex="1">
          <mxGeometry x="30" width="220" height="30" as="geometry">
            <mxRectangle width="220" height="30" as="alternateBounds" />
          </mxGeometry>
        </mxCell>
        <mxCell id="AA0x2wm6orCLK1CSmLFN-38" value="" style="shape=partialRectangle;collapsible=0;dropTarget=0;pointerEvents=0;fillColor=none;points=[[0,0.5],[1,0.5]];portConstraint=eastwest;top=0;left=0;right=0;bottom=0;" parent="AA0x2wm6orCLK1CSmLFN-34" vertex="1">
          <mxGeometry y="60" width="250" height="40" as="geometry" />
        </mxCell>
        <mxCell id="AA0x2wm6orCLK1CSmLFN-39" value="" style="shape=partialRectangle;overflow=hidden;connectable=0;fillColor=none;top=0;left=0;bottom=0;right=0;" parent="AA0x2wm6orCLK1CSmLFN-38" vertex="1">
          <mxGeometry width="30" height="40" as="geometry">
            <mxRectangle width="30" height="40" as="alternateBounds" />
          </mxGeometry>
        </mxCell>
        <mxCell id="AA0x2wm6orCLK1CSmLFN-40" value="group_name" style="shape=partialRectangle;overflow=hidden;connectable=0;fillColor=none;top=0;left=0;bottom=0;right=0;align=left;spacingLeft=6;" parent="AA0x2wm6orCLK1CSmLFN-38" vertex="1">
          <mxGeometry x="30" width="220" height="40" as="geometry">
            <mxRectangle width="220" height="40" as="alternateBounds" />
          </mxGeometry>
        </mxCell>
        <mxCell id="AA0x2wm6orCLK1CSmLFN-47" value="" style="edgeStyle=orthogonalEdgeStyle;fontSize=12;html=1;endArrow=ERzeroToMany;startArrow=ERzeroToOne;rounded=0;" parent="1" edge="1">
          <mxGeometry width="100" height="100" relative="1" as="geometry">
            <mxPoint x="-32" y="510" as="sourcePoint" />
            <mxPoint x="-32.5" y="360" as="targetPoint" />
            <Array as="points">
              <mxPoint x="-32" y="530" />
              <mxPoint x="-32" y="446" />
            </Array>
          </mxGeometry>
        </mxCell>
        <mxCell id="AA0x2wm6orCLK1CSmLFN-48" value="" style="edgeStyle=orthogonalEdgeStyle;fontSize=12;html=1;endArrow=ERzeroToMany;startArrow=ERmandOne;rounded=0;exitX=0;exitY=0.5;exitDx=0;exitDy=0;" parent="1" source="C-vyLk0tnHw3VtMMgP7b-9" edge="1">
          <mxGeometry width="100" height="100" relative="1" as="geometry">
            <mxPoint x="270" y="200" as="sourcePoint" />
            <mxPoint x="90" y="260" as="targetPoint" />
            <Array as="points">
              <mxPoint x="130" y="225" />
              <mxPoint x="130" y="260" />
            </Array>
          </mxGeometry>
        </mxCell>
        <mxCell id="AA0x2wm6orCLK1CSmLFN-89" value="" style="edgeStyle=orthogonalEdgeStyle;fontSize=12;html=1;endArrow=ERzeroToMany;startArrow=ERmandOne;rounded=0;exitX=1;exitY=0.5;exitDx=0;exitDy=0;entryX=1;entryY=0.5;entryDx=0;entryDy=0;" parent="1" source="C-vyLk0tnHw3VtMMgP7b-9" target="C-vyLk0tnHw3VtMMgP7b-20" edge="1">
          <mxGeometry width="100" height="100" relative="1" as="geometry">
            <mxPoint x="270" y="235" as="sourcePoint" />
            <mxPoint x="100" y="270" as="targetPoint" />
            <Array as="points">
              <mxPoint x="570" y="225" />
              <mxPoint x="570" y="545" />
            </Array>
          </mxGeometry>
        </mxCell>
        <mxCell id="AA0x2wm6orCLK1CSmLFN-90" value="" style="edgeStyle=orthogonalEdgeStyle;fontSize=12;html=1;endArrow=ERzeroToMany;startArrow=ERmandOne;rounded=0;exitX=1.002;exitY=0.978;exitDx=0;exitDy=0;entryX=0;entryY=0.5;entryDx=0;entryDy=0;exitPerimeter=0;" parent="1" source="AA0x2wm6orCLK1CSmLFN-35" target="C-vyLk0tnHw3VtMMgP7b-20" edge="1">
          <mxGeometry width="100" height="100" relative="1" as="geometry">
            <mxPoint x="90" y="400" as="sourcePoint" />
            <mxPoint x="190" y="720" as="targetPoint" />
            <Array as="points">
              <mxPoint x="220" y="589" />
              <mxPoint x="220" y="545" />
            </Array>
          </mxGeometry>
        </mxCell>
        <mxCell id="AA0x2wm6orCLK1CSmLFN-94" value="" style="edgeStyle=orthogonalEdgeStyle;fontSize=12;html=1;endArrow=ERzeroToMany;endFill=1;rounded=0;exitX=0;exitY=0.5;exitDx=0;exitDy=0;entryX=1;entryY=0.5;entryDx=0;entryDy=0;" parent="1" source="AA0x2wm6orCLK1CSmLFN-93" target="AA0x2wm6orCLK1CSmLFN-92" edge="1">
          <mxGeometry relative="1" as="geometry">
            <mxPoint x="1350" y="-500" as="targetPoint" />
          </mxGeometry>
        </mxCell>
        <mxCell id="AA0x2wm6orCLK1CSmLFN-98" value="" style="edgeStyle=orthogonalEdgeStyle;rounded=0;orthogonalLoop=1;jettySize=auto;html=1;" parent="1" source="AA0x2wm6orCLK1CSmLFN-92" target="AA0x2wm6orCLK1CSmLFN-97" edge="1">
          <mxGeometry relative="1" as="geometry" />
        </mxCell>
        <mxCell id="AA0x2wm6orCLK1CSmLFN-121" style="edgeStyle=orthogonalEdgeStyle;rounded=0;orthogonalLoop=1;jettySize=auto;html=1;entryX=1;entryY=0.5;entryDx=0;entryDy=0;exitX=0.25;exitY=1;exitDx=0;exitDy=0;" parent="1" source="AA0x2wm6orCLK1CSmLFN-92" target="AA0x2wm6orCLK1CSmLFN-119" edge="1">
          <mxGeometry relative="1" as="geometry">
            <Array as="points">
              <mxPoint x="1245" y="-580" />
              <mxPoint x="1180" y="-580" />
              <mxPoint x="1180" y="-560" />
            </Array>
          </mxGeometry>
        </mxCell>
        <mxCell id="AA0x2wm6orCLK1CSmLFN-122" style="edgeStyle=orthogonalEdgeStyle;rounded=0;orthogonalLoop=1;jettySize=auto;html=1;entryX=1;entryY=0.5;entryDx=0;entryDy=0;" parent="1" source="AA0x2wm6orCLK1CSmLFN-92" target="AA0x2wm6orCLK1CSmLFN-115" edge="1">
          <mxGeometry relative="1" as="geometry" />
        </mxCell>
        <mxCell id="AA0x2wm6orCLK1CSmLFN-123" style="edgeStyle=orthogonalEdgeStyle;rounded=0;orthogonalLoop=1;jettySize=auto;html=1;exitX=0.25;exitY=0;exitDx=0;exitDy=0;entryX=1;entryY=0.5;entryDx=0;entryDy=0;" parent="1" source="AA0x2wm6orCLK1CSmLFN-92" target="AA0x2wm6orCLK1CSmLFN-116" edge="1">
          <mxGeometry relative="1" as="geometry" />
        </mxCell>
        <mxCell id="AA0x2wm6orCLK1CSmLFN-124" style="edgeStyle=orthogonalEdgeStyle;rounded=0;orthogonalLoop=1;jettySize=auto;html=1;exitX=0.5;exitY=0;exitDx=0;exitDy=0;entryX=1;entryY=0.5;entryDx=0;entryDy=0;" parent="1" source="AA0x2wm6orCLK1CSmLFN-92" target="AA0x2wm6orCLK1CSmLFN-117" edge="1">
          <mxGeometry relative="1" as="geometry" />
        </mxCell>
        <mxCell id="AA0x2wm6orCLK1CSmLFN-92" value="Message" style="whiteSpace=wrap;html=1;align=center;" parent="1" vertex="1">
          <mxGeometry x="1220" y="-650" width="100" height="40" as="geometry" />
        </mxCell>
        <mxCell id="AA0x2wm6orCLK1CSmLFN-106" style="edgeStyle=orthogonalEdgeStyle;fontSize=12;html=1;endArrow=ERmandOne;endFill=1;rounded=0;exitX=1;exitY=0.5;exitDx=0;exitDy=0;entryX=0;entryY=0.5;entryDx=0;entryDy=0;" parent="1" source="AA0x2wm6orCLK1CSmLFN-93" target="AA0x2wm6orCLK1CSmLFN-95" edge="1">
          <mxGeometry relative="1" as="geometry">
            <Array as="points">
              <mxPoint x="1530" y="-630" />
              <mxPoint x="1530" y="-630" />
            </Array>
          </mxGeometry>
        </mxCell>
        <mxCell id="AA0x2wm6orCLK1CSmLFN-93" value="has" style="rhombus;whiteSpace=wrap;html=1;" parent="1" vertex="1">
          <mxGeometry x="1410" y="-670" width="80" height="80" as="geometry" />
        </mxCell>
        <mxCell id="AA0x2wm6orCLK1CSmLFN-132" style="edgeStyle=orthogonalEdgeStyle;rounded=0;orthogonalLoop=1;jettySize=auto;html=1;exitX=0.75;exitY=1;exitDx=0;exitDy=0;entryX=0;entryY=0.5;entryDx=0;entryDy=0;" parent="1" source="AA0x2wm6orCLK1CSmLFN-95" target="AA0x2wm6orCLK1CSmLFN-131" edge="1">
          <mxGeometry relative="1" as="geometry" />
        </mxCell>
        <mxCell id="AA0x2wm6orCLK1CSmLFN-133" style="edgeStyle=orthogonalEdgeStyle;rounded=0;orthogonalLoop=1;jettySize=auto;html=1;exitX=1;exitY=0.5;exitDx=0;exitDy=0;entryX=0;entryY=0.5;entryDx=0;entryDy=0;" parent="1" source="AA0x2wm6orCLK1CSmLFN-95" target="AA0x2wm6orCLK1CSmLFN-130" edge="1">
          <mxGeometry relative="1" as="geometry" />
        </mxCell>
        <mxCell id="AA0x2wm6orCLK1CSmLFN-134" style="edgeStyle=orthogonalEdgeStyle;rounded=0;orthogonalLoop=1;jettySize=auto;html=1;exitX=1;exitY=0;exitDx=0;exitDy=0;entryX=0;entryY=0.5;entryDx=0;entryDy=0;" parent="1" source="AA0x2wm6orCLK1CSmLFN-95" target="AA0x2wm6orCLK1CSmLFN-129" edge="1">
          <mxGeometry relative="1" as="geometry" />
        </mxCell>
        <mxCell id="AA0x2wm6orCLK1CSmLFN-136" style="edgeStyle=orthogonalEdgeStyle;rounded=0;orthogonalLoop=1;jettySize=auto;html=1;exitX=0.25;exitY=0;exitDx=0;exitDy=0;entryX=0.5;entryY=1;entryDx=0;entryDy=0;" parent="1" source="AA0x2wm6orCLK1CSmLFN-95" target="AA0x2wm6orCLK1CSmLFN-126" edge="1">
          <mxGeometry relative="1" as="geometry">
            <mxPoint x="1579.9473684210527" y="-750.0000000000001" as="targetPoint" />
          </mxGeometry>
        </mxCell>
        <mxCell id="AA0x2wm6orCLK1CSmLFN-95" value="contact" style="whiteSpace=wrap;html=1;" parent="1" vertex="1">
          <mxGeometry x="1550" y="-660" width="120" height="60" as="geometry" />
        </mxCell>
        <mxCell id="AA0x2wm6orCLK1CSmLFN-100" value="" style="edgeStyle=orthogonalEdgeStyle;rounded=0;orthogonalLoop=1;jettySize=auto;html=1;" parent="1" source="AA0x2wm6orCLK1CSmLFN-97" target="AA0x2wm6orCLK1CSmLFN-99" edge="1">
          <mxGeometry relative="1" as="geometry" />
        </mxCell>
        <mxCell id="AA0x2wm6orCLK1CSmLFN-97" value="has" style="rhombus;whiteSpace=wrap;html=1;" parent="1" vertex="1">
          <mxGeometry x="1230" y="-550" width="80" height="80" as="geometry" />
        </mxCell>
        <mxCell id="AA0x2wm6orCLK1CSmLFN-146" style="edgeStyle=orthogonalEdgeStyle;rounded=0;orthogonalLoop=1;jettySize=auto;html=1;entryX=1;entryY=0;entryDx=0;entryDy=0;" parent="1" source="AA0x2wm6orCLK1CSmLFN-99" target="AA0x2wm6orCLK1CSmLFN-143" edge="1">
          <mxGeometry relative="1" as="geometry" />
        </mxCell>
        <mxCell id="AA0x2wm6orCLK1CSmLFN-99" value="group" style="whiteSpace=wrap;html=1;" parent="1" vertex="1">
          <mxGeometry x="1210" y="-380" width="120" height="60" as="geometry" />
        </mxCell>
        <mxCell id="AA0x2wm6orCLK1CSmLFN-103" style="edgeStyle=orthogonalEdgeStyle;fontSize=12;html=1;endArrow=ERoneToMany;endFill=1;rounded=0;exitX=0.5;exitY=0;exitDx=0;exitDy=0;entryX=0.5;entryY=1;entryDx=0;entryDy=0;" parent="1" source="AA0x2wm6orCLK1CSmLFN-101" target="AA0x2wm6orCLK1CSmLFN-95" edge="1">
          <mxGeometry relative="1" as="geometry" />
        </mxCell>
        <mxCell id="AA0x2wm6orCLK1CSmLFN-109" style="edgeStyle=orthogonalEdgeStyle;fontSize=12;html=1;endArrow=ERzeroToMany;endFill=1;rounded=0;exitX=0;exitY=0.5;exitDx=0;exitDy=0;entryX=1;entryY=0.5;entryDx=0;entryDy=0;" parent="1" source="AA0x2wm6orCLK1CSmLFN-101" target="AA0x2wm6orCLK1CSmLFN-99" edge="1">
          <mxGeometry relative="1" as="geometry">
            <Array as="points">
              <mxPoint x="1380" y="-350" />
              <mxPoint x="1380" y="-350" />
            </Array>
          </mxGeometry>
        </mxCell>
        <mxCell id="AA0x2wm6orCLK1CSmLFN-101" value="has" style="rhombus;whiteSpace=wrap;html=1;" parent="1" vertex="1">
          <mxGeometry x="1460" y="-390" width="80" height="80" as="geometry" />
        </mxCell>
        <mxCell id="AA0x2wm6orCLK1CSmLFN-115" value="from_number" style="ellipse;whiteSpace=wrap;html=1;align=center;" parent="1" vertex="1">
          <mxGeometry x="1040" y="-650" width="100" height="40" as="geometry" />
        </mxCell>
        <mxCell id="AA0x2wm6orCLK1CSmLFN-116" value="to_number" style="ellipse;whiteSpace=wrap;html=1;align=center;" parent="1" vertex="1">
          <mxGeometry x="1050" y="-720" width="100" height="40" as="geometry" />
        </mxCell>
        <mxCell id="AA0x2wm6orCLK1CSmLFN-117" value="sent_datetime" style="ellipse;whiteSpace=wrap;html=1;align=center;" parent="1" vertex="1">
          <mxGeometry x="1130" y="-780" width="100" height="40" as="geometry" />
        </mxCell>
        <mxCell id="AA0x2wm6orCLK1CSmLFN-118" value="message_text" style="ellipse;whiteSpace=wrap;html=1;align=center;" parent="1" vertex="1">
          <mxGeometry x="1260" y="-810" width="100" height="40" as="geometry" />
        </mxCell>
        <mxCell id="AA0x2wm6orCLK1CSmLFN-119" value="id" style="ellipse;whiteSpace=wrap;html=1;align=center;fontStyle=4;" parent="1" vertex="1">
          <mxGeometry x="1040" y="-580" width="100" height="40" as="geometry" />
        </mxCell>
        <mxCell id="AA0x2wm6orCLK1CSmLFN-125" style="edgeStyle=orthogonalEdgeStyle;rounded=0;orthogonalLoop=1;jettySize=auto;html=1;exitX=0.75;exitY=0;exitDx=0;exitDy=0;entryX=0.347;entryY=1;entryDx=0;entryDy=0;entryPerimeter=0;" parent="1" source="AA0x2wm6orCLK1CSmLFN-92" target="AA0x2wm6orCLK1CSmLFN-118" edge="1">
          <mxGeometry relative="1" as="geometry" />
        </mxCell>
        <mxCell id="AA0x2wm6orCLK1CSmLFN-126" value="first_name" style="ellipse;whiteSpace=wrap;html=1;align=center;" parent="1" vertex="1">
          <mxGeometry x="1530" y="-780" width="100" height="40" as="geometry" />
        </mxCell>
        <mxCell id="AA0x2wm6orCLK1CSmLFN-128" value="last_name" style="ellipse;whiteSpace=wrap;html=1;align=center;" parent="1" vertex="1">
          <mxGeometry x="1680" y="-770" width="100" height="40" as="geometry" />
        </mxCell>
        <mxCell id="AA0x2wm6orCLK1CSmLFN-129" value="profile_photo" style="ellipse;whiteSpace=wrap;html=1;align=center;" parent="1" vertex="1">
          <mxGeometry x="1720" y="-700" width="100" height="40" as="geometry" />
        </mxCell>
        <mxCell id="AA0x2wm6orCLK1CSmLFN-130" value="phone_number" style="ellipse;whiteSpace=wrap;html=1;align=center;" parent="1" vertex="1">
          <mxGeometry x="1730" y="-640" width="100" height="40" as="geometry" />
        </mxCell>
        <mxCell id="AA0x2wm6orCLK1CSmLFN-131" value="id" style="ellipse;whiteSpace=wrap;html=1;align=center;fontStyle=4;" parent="1" vertex="1">
          <mxGeometry x="1730" y="-570" width="100" height="40" as="geometry" />
        </mxCell>
        <mxCell id="AA0x2wm6orCLK1CSmLFN-135" style="edgeStyle=orthogonalEdgeStyle;rounded=0;orthogonalLoop=1;jettySize=auto;html=1;exitX=0.75;exitY=0;exitDx=0;exitDy=0;entryX=0.01;entryY=0.721;entryDx=0;entryDy=0;entryPerimeter=0;" parent="1" source="AA0x2wm6orCLK1CSmLFN-95" target="AA0x2wm6orCLK1CSmLFN-128" edge="1">
          <mxGeometry relative="1" as="geometry" />
        </mxCell>
        <mxCell id="AA0x2wm6orCLK1CSmLFN-139" value="joined_datetime" style="ellipse;whiteSpace=wrap;html=1;align=center;" parent="1" vertex="1">
          <mxGeometry x="1470" y="-290" width="100" height="40" as="geometry" />
        </mxCell>
        <mxCell id="AA0x2wm6orCLK1CSmLFN-140" value="left_datetime" style="ellipse;whiteSpace=wrap;html=1;align=center;" parent="1" vertex="1">
          <mxGeometry x="1620" y="-380" width="100" height="40" as="geometry" />
        </mxCell>
        <mxCell id="AA0x2wm6orCLK1CSmLFN-141" style="edgeStyle=orthogonalEdgeStyle;rounded=0;orthogonalLoop=1;jettySize=auto;html=1;exitX=0.5;exitY=1;exitDx=0;exitDy=0;entryX=0.31;entryY=-0.016;entryDx=0;entryDy=0;entryPerimeter=0;" parent="1" source="AA0x2wm6orCLK1CSmLFN-101" target="AA0x2wm6orCLK1CSmLFN-139" edge="1">
          <mxGeometry relative="1" as="geometry" />
        </mxCell>
        <mxCell id="AA0x2wm6orCLK1CSmLFN-142" style="edgeStyle=orthogonalEdgeStyle;rounded=0;orthogonalLoop=1;jettySize=auto;html=1;exitX=1;exitY=0.5;exitDx=0;exitDy=0;entryX=0.01;entryY=0.761;entryDx=0;entryDy=0;entryPerimeter=0;" parent="1" source="AA0x2wm6orCLK1CSmLFN-101" target="AA0x2wm6orCLK1CSmLFN-140" edge="1">
          <mxGeometry relative="1" as="geometry" />
        </mxCell>
        <mxCell id="AA0x2wm6orCLK1CSmLFN-143" value="group_name" style="ellipse;whiteSpace=wrap;html=1;align=center;" parent="1" vertex="1">
          <mxGeometry x="1060" y="-360" width="100" height="40" as="geometry" />
        </mxCell>
        <mxCell id="AA0x2wm6orCLK1CSmLFN-144" value="Id" style="ellipse;whiteSpace=wrap;html=1;align=center;fontStyle=4;" parent="1" vertex="1">
          <mxGeometry x="1200" y="-290" width="100" height="40" as="geometry" />
        </mxCell>
        <mxCell id="AA0x2wm6orCLK1CSmLFN-145" style="edgeStyle=orthogonalEdgeStyle;rounded=0;orthogonalLoop=1;jettySize=auto;html=1;entryX=0.694;entryY=0.011;entryDx=0;entryDy=0;entryPerimeter=0;" parent="1" source="AA0x2wm6orCLK1CSmLFN-99" target="AA0x2wm6orCLK1CSmLFN-144" edge="1">
          <mxGeometry relative="1" as="geometry" />
        </mxCell>
        <mxCell id="Olvo123opY4gGVHHoOmb-1" style="edgeStyle=orthogonalEdgeStyle;rounded=0;orthogonalLoop=1;jettySize=auto;html=1;exitX=1;exitY=0.25;exitDx=0;exitDy=0;entryX=0;entryY=0.5;entryDx=0;entryDy=0;" edge="1" parent="1" source="Olvo123opY4gGVHHoOmb-2" target="Olvo123opY4gGVHHoOmb-6">
          <mxGeometry relative="1" as="geometry" />
        </mxCell>
        <mxCell id="Olvo123opY4gGVHHoOmb-2" value="verificationToken" style="rounded=1;arcSize=10;whiteSpace=wrap;html=1;align=center;" vertex="1" parent="1">
          <mxGeometry x="-635" y="-570" width="100" height="40" as="geometry" />
        </mxCell>
        <mxCell id="Olvo123opY4gGVHHoOmb-3" value="email" style="ellipse;whiteSpace=wrap;html=1;align=center;" vertex="1" parent="1">
          <mxGeometry x="-750" y="-600" width="100" height="40" as="geometry" />
        </mxCell>
        <mxCell id="Olvo123opY4gGVHHoOmb-4" value="token" style="ellipse;whiteSpace=wrap;html=1;align=center;" vertex="1" parent="1">
          <mxGeometry x="-670" y="-650" width="100" height="40" as="geometry" />
        </mxCell>
        <mxCell id="Olvo123opY4gGVHHoOmb-5" value="expires" style="ellipse;whiteSpace=wrap;html=1;align=center;" vertex="1" parent="1">
          <mxGeometry x="-560" y="-635" width="100" height="40" as="geometry" />
        </mxCell>
        <mxCell id="Olvo123opY4gGVHHoOmb-6" value="&amp;nbsp; &amp;nbsp;id&amp;nbsp; &amp;nbsp;" style="ellipse;whiteSpace=wrap;html=1;align=center;fontStyle=4;" vertex="1" parent="1">
          <mxGeometry x="-520" y="-580" width="100" height="40" as="geometry" />
        </mxCell>
        <mxCell id="Olvo123opY4gGVHHoOmb-7" style="edgeStyle=orthogonalEdgeStyle;rounded=0;orthogonalLoop=1;jettySize=auto;html=1;exitX=0;exitY=0.25;exitDx=0;exitDy=0;entryX=0.72;entryY=0.94;entryDx=0;entryDy=0;entryPerimeter=0;" edge="1" parent="1" source="Olvo123opY4gGVHHoOmb-2" target="Olvo123opY4gGVHHoOmb-3">
          <mxGeometry relative="1" as="geometry" />
        </mxCell>
        <mxCell id="Olvo123opY4gGVHHoOmb-8" style="edgeStyle=orthogonalEdgeStyle;rounded=0;orthogonalLoop=1;jettySize=auto;html=1;exitX=0.25;exitY=0;exitDx=0;exitDy=0;entryX=0.615;entryY=1.048;entryDx=0;entryDy=0;entryPerimeter=0;" edge="1" parent="1" source="Olvo123opY4gGVHHoOmb-2" target="Olvo123opY4gGVHHoOmb-4">
          <mxGeometry relative="1" as="geometry" />
        </mxCell>
        <mxCell id="Olvo123opY4gGVHHoOmb-9" style="edgeStyle=orthogonalEdgeStyle;rounded=0;orthogonalLoop=1;jettySize=auto;html=1;exitX=0.75;exitY=0;exitDx=0;exitDy=0;entryX=0.049;entryY=0.839;entryDx=0;entryDy=0;entryPerimeter=0;" edge="1" parent="1" source="Olvo123opY4gGVHHoOmb-2" target="Olvo123opY4gGVHHoOmb-5">
          <mxGeometry relative="1" as="geometry" />
        </mxCell>
        <mxCell id="Olvo123opY4gGVHHoOmb-10" style="edgeStyle=orthogonalEdgeStyle;rounded=0;orthogonalLoop=1;jettySize=auto;html=1;exitX=1;exitY=0.25;exitDx=0;exitDy=0;entryX=0;entryY=0.5;entryDx=0;entryDy=0;" edge="1" parent="1" source="Olvo123opY4gGVHHoOmb-11" target="Olvo123opY4gGVHHoOmb-15">
          <mxGeometry relative="1" as="geometry" />
        </mxCell>
        <mxCell id="Olvo123opY4gGVHHoOmb-11" value="passwordToken" style="rounded=1;arcSize=10;whiteSpace=wrap;html=1;align=center;" vertex="1" parent="1">
          <mxGeometry x="-645" y="-380" width="100" height="40" as="geometry" />
        </mxCell>
        <mxCell id="Olvo123opY4gGVHHoOmb-12" value="email" style="ellipse;whiteSpace=wrap;html=1;align=center;" vertex="1" parent="1">
          <mxGeometry x="-760" y="-410" width="100" height="40" as="geometry" />
        </mxCell>
        <mxCell id="Olvo123opY4gGVHHoOmb-13" value="token" style="ellipse;whiteSpace=wrap;html=1;align=center;" vertex="1" parent="1">
          <mxGeometry x="-680" y="-460" width="100" height="40" as="geometry" />
        </mxCell>
        <mxCell id="Olvo123opY4gGVHHoOmb-14" value="expires" style="ellipse;whiteSpace=wrap;html=1;align=center;" vertex="1" parent="1">
          <mxGeometry x="-570" y="-445" width="100" height="40" as="geometry" />
        </mxCell>
        <mxCell id="Olvo123opY4gGVHHoOmb-15" value="&amp;nbsp; &amp;nbsp;id&amp;nbsp; &amp;nbsp;" style="ellipse;whiteSpace=wrap;html=1;align=center;fontStyle=4;" vertex="1" parent="1">
          <mxGeometry x="-530" y="-390" width="100" height="40" as="geometry" />
        </mxCell>
        <mxCell id="Olvo123opY4gGVHHoOmb-16" style="edgeStyle=orthogonalEdgeStyle;rounded=0;orthogonalLoop=1;jettySize=auto;html=1;exitX=0;exitY=0.25;exitDx=0;exitDy=0;entryX=0.72;entryY=0.94;entryDx=0;entryDy=0;entryPerimeter=0;" edge="1" parent="1" source="Olvo123opY4gGVHHoOmb-11" target="Olvo123opY4gGVHHoOmb-12">
          <mxGeometry relative="1" as="geometry" />
        </mxCell>
        <mxCell id="Olvo123opY4gGVHHoOmb-17" style="edgeStyle=orthogonalEdgeStyle;rounded=0;orthogonalLoop=1;jettySize=auto;html=1;exitX=0.25;exitY=0;exitDx=0;exitDy=0;entryX=0.615;entryY=1.048;entryDx=0;entryDy=0;entryPerimeter=0;" edge="1" parent="1" source="Olvo123opY4gGVHHoOmb-11" target="Olvo123opY4gGVHHoOmb-13">
          <mxGeometry relative="1" as="geometry" />
        </mxCell>
        <mxCell id="Olvo123opY4gGVHHoOmb-18" style="edgeStyle=orthogonalEdgeStyle;rounded=0;orthogonalLoop=1;jettySize=auto;html=1;exitX=0.75;exitY=0;exitDx=0;exitDy=0;entryX=0.049;entryY=0.839;entryDx=0;entryDy=0;entryPerimeter=0;" edge="1" parent="1" source="Olvo123opY4gGVHHoOmb-11" target="Olvo123opY4gGVHHoOmb-14">
          <mxGeometry relative="1" as="geometry" />
        </mxCell>
        <mxCell id="Olvo123opY4gGVHHoOmb-19" style="edgeStyle=orthogonalEdgeStyle;rounded=0;orthogonalLoop=1;jettySize=auto;html=1;exitX=1;exitY=0.25;exitDx=0;exitDy=0;entryX=0;entryY=0.5;entryDx=0;entryDy=0;" edge="1" parent="1" source="Olvo123opY4gGVHHoOmb-20" target="Olvo123opY4gGVHHoOmb-24">
          <mxGeometry relative="1" as="geometry" />
        </mxCell>
        <mxCell id="Olvo123opY4gGVHHoOmb-20" value="twofactorToken" style="rounded=1;arcSize=10;whiteSpace=wrap;html=1;align=center;" vertex="1" parent="1">
          <mxGeometry x="-655" y="-200" width="100" height="40" as="geometry" />
        </mxCell>
        <mxCell id="Olvo123opY4gGVHHoOmb-21" value="email" style="ellipse;whiteSpace=wrap;html=1;align=center;" vertex="1" parent="1">
          <mxGeometry x="-770" y="-230" width="100" height="40" as="geometry" />
        </mxCell>
        <mxCell id="Olvo123opY4gGVHHoOmb-22" value="token" style="ellipse;whiteSpace=wrap;html=1;align=center;" vertex="1" parent="1">
          <mxGeometry x="-690" y="-280" width="100" height="40" as="geometry" />
        </mxCell>
        <mxCell id="Olvo123opY4gGVHHoOmb-23" value="expires" style="ellipse;whiteSpace=wrap;html=1;align=center;" vertex="1" parent="1">
          <mxGeometry x="-580" y="-265" width="100" height="40" as="geometry" />
        </mxCell>
        <mxCell id="Olvo123opY4gGVHHoOmb-24" value="&amp;nbsp; &amp;nbsp;id&amp;nbsp; &amp;nbsp;" style="ellipse;whiteSpace=wrap;html=1;align=center;fontStyle=4;" vertex="1" parent="1">
          <mxGeometry x="-540" y="-210" width="100" height="40" as="geometry" />
        </mxCell>
        <mxCell id="Olvo123opY4gGVHHoOmb-25" style="edgeStyle=orthogonalEdgeStyle;rounded=0;orthogonalLoop=1;jettySize=auto;html=1;exitX=0;exitY=0.25;exitDx=0;exitDy=0;entryX=0.72;entryY=0.94;entryDx=0;entryDy=0;entryPerimeter=0;" edge="1" parent="1" source="Olvo123opY4gGVHHoOmb-20" target="Olvo123opY4gGVHHoOmb-21">
          <mxGeometry relative="1" as="geometry" />
        </mxCell>
        <mxCell id="Olvo123opY4gGVHHoOmb-26" style="edgeStyle=orthogonalEdgeStyle;rounded=0;orthogonalLoop=1;jettySize=auto;html=1;exitX=0.25;exitY=0;exitDx=0;exitDy=0;entryX=0.615;entryY=1.048;entryDx=0;entryDy=0;entryPerimeter=0;" edge="1" parent="1" source="Olvo123opY4gGVHHoOmb-20" target="Olvo123opY4gGVHHoOmb-22">
          <mxGeometry relative="1" as="geometry" />
        </mxCell>
        <mxCell id="Olvo123opY4gGVHHoOmb-27" style="edgeStyle=orthogonalEdgeStyle;rounded=0;orthogonalLoop=1;jettySize=auto;html=1;exitX=0.75;exitY=0;exitDx=0;exitDy=0;entryX=0.049;entryY=0.839;entryDx=0;entryDy=0;entryPerimeter=0;" edge="1" parent="1" source="Olvo123opY4gGVHHoOmb-20" target="Olvo123opY4gGVHHoOmb-23">
          <mxGeometry relative="1" as="geometry" />
        </mxCell>
        <mxCell id="Olvo123opY4gGVHHoOmb-28" value="&amp;nbsp; id&amp;nbsp;&amp;nbsp;" style="ellipse;whiteSpace=wrap;html=1;align=center;fontStyle=4;" vertex="1" parent="1">
          <mxGeometry x="200" y="-510" width="100" height="40" as="geometry" />
        </mxCell>
        <mxCell id="Olvo123opY4gGVHHoOmb-29" style="edgeStyle=orthogonalEdgeStyle;rounded=0;orthogonalLoop=1;jettySize=auto;html=1;exitX=1;exitY=0.25;exitDx=0;exitDy=0;" edge="1" parent="1" source="Olvo123opY4gGVHHoOmb-34">
          <mxGeometry relative="1" as="geometry">
            <mxPoint x="500" y="-425" as="targetPoint" />
            <Array as="points">
              <mxPoint x="480" y="-370" />
              <mxPoint x="480" y="-425" />
            </Array>
          </mxGeometry>
        </mxCell>
        <mxCell id="Olvo123opY4gGVHHoOmb-30" style="edgeStyle=orthogonalEdgeStyle;rounded=0;orthogonalLoop=1;jettySize=auto;html=1;exitX=1;exitY=0;exitDx=0;exitDy=0;entryX=0;entryY=0.5;entryDx=0;entryDy=0;" edge="1" parent="1" source="Olvo123opY4gGVHHoOmb-34" target="Olvo123opY4gGVHHoOmb-38">
          <mxGeometry relative="1" as="geometry">
            <Array as="points">
              <mxPoint x="460" y="-380" />
              <mxPoint x="460" y="-480" />
            </Array>
          </mxGeometry>
        </mxCell>
        <mxCell id="Olvo123opY4gGVHHoOmb-31" style="edgeStyle=orthogonalEdgeStyle;rounded=0;orthogonalLoop=1;jettySize=auto;html=1;exitX=0.75;exitY=1;exitDx=0;exitDy=0;entryX=0;entryY=0.5;entryDx=0;entryDy=0;" edge="1" parent="1" source="Olvo123opY4gGVHHoOmb-34" target="Olvo123opY4gGVHHoOmb-90">
          <mxGeometry relative="1" as="geometry" />
        </mxCell>
        <mxCell id="Olvo123opY4gGVHHoOmb-32" style="edgeStyle=orthogonalEdgeStyle;rounded=0;orthogonalLoop=1;jettySize=auto;html=1;entryX=1;entryY=0.5;entryDx=0;entryDy=0;" edge="1" parent="1" source="Olvo123opY4gGVHHoOmb-34" target="Olvo123opY4gGVHHoOmb-28">
          <mxGeometry relative="1" as="geometry">
            <Array as="points">
              <mxPoint x="380" y="-460" />
              <mxPoint x="300" y="-460" />
            </Array>
          </mxGeometry>
        </mxCell>
        <mxCell id="Olvo123opY4gGVHHoOmb-33" style="edgeStyle=orthogonalEdgeStyle;rounded=0;orthogonalLoop=1;jettySize=auto;html=1;entryX=1;entryY=1;entryDx=0;entryDy=0;" edge="1" parent="1" source="Olvo123opY4gGVHHoOmb-34" target="Olvo123opY4gGVHHoOmb-35">
          <mxGeometry relative="1" as="geometry">
            <Array as="points">
              <mxPoint x="390" y="-490" />
              <mxPoint x="315" y="-490" />
            </Array>
          </mxGeometry>
        </mxCell>
        <mxCell id="Olvo123opY4gGVHHoOmb-34" value="User" style="rounded=1;arcSize=10;whiteSpace=wrap;html=1;align=center;" vertex="1" parent="1">
          <mxGeometry x="370" y="-370" width="70" height="30" as="geometry" />
        </mxCell>
        <mxCell id="Olvo123opY4gGVHHoOmb-35" value="email" style="ellipse;whiteSpace=wrap;html=1;align=center;" vertex="1" parent="1">
          <mxGeometry x="230" y="-560" width="100" height="40" as="geometry" />
        </mxCell>
        <mxCell id="Olvo123opY4gGVHHoOmb-36" value="emailVerified" style="ellipse;whiteSpace=wrap;html=1;align=center;" vertex="1" parent="1">
          <mxGeometry x="340" y="-540" width="100" height="40" as="geometry" />
        </mxCell>
        <mxCell id="Olvo123opY4gGVHHoOmb-37" value="password" style="ellipse;whiteSpace=wrap;html=1;align=center;" vertex="1" parent="1">
          <mxGeometry x="450" y="-540" width="100" height="40" as="geometry" />
        </mxCell>
        <mxCell id="Olvo123opY4gGVHHoOmb-38" value="role" style="ellipse;whiteSpace=wrap;html=1;align=center;" vertex="1" parent="1">
          <mxGeometry x="500" y="-500" width="100" height="40" as="geometry" />
        </mxCell>
        <mxCell id="Olvo123opY4gGVHHoOmb-39" value="image" style="ellipse;whiteSpace=wrap;html=1;align=center;" vertex="1" parent="1">
          <mxGeometry x="215" y="-460" width="100" height="40" as="geometry" />
        </mxCell>
        <mxCell id="Olvo123opY4gGVHHoOmb-40" value="isTowFactorEnabled" style="ellipse;whiteSpace=wrap;html=1;align=center;" vertex="1" parent="1">
          <mxGeometry x="500" y="-450" width="120" height="50" as="geometry" />
        </mxCell>
        <mxCell id="Olvo123opY4gGVHHoOmb-41" value="twoFactorConfirmation" style="ellipse;whiteSpace=wrap;html=1;align=center;" vertex="1" parent="1">
          <mxGeometry x="500" y="-390" width="130" height="50" as="geometry" />
        </mxCell>
        <mxCell id="Olvo123opY4gGVHHoOmb-42" style="edgeStyle=orthogonalEdgeStyle;rounded=0;orthogonalLoop=1;jettySize=auto;html=1;entryX=-0.01;entryY=0.589;entryDx=0;entryDy=0;entryPerimeter=0;" edge="1" parent="1" source="Olvo123opY4gGVHHoOmb-34" target="Olvo123opY4gGVHHoOmb-41">
          <mxGeometry relative="1" as="geometry" />
        </mxCell>
        <mxCell id="Olvo123opY4gGVHHoOmb-43" style="edgeStyle=orthogonalEdgeStyle;rounded=0;orthogonalLoop=1;jettySize=auto;html=1;" edge="1" parent="1" source="Olvo123opY4gGVHHoOmb-49" target="Olvo123opY4gGVHHoOmb-50">
          <mxGeometry relative="1" as="geometry" />
        </mxCell>
        <mxCell id="Olvo123opY4gGVHHoOmb-44" style="edgeStyle=orthogonalEdgeStyle;rounded=0;orthogonalLoop=1;jettySize=auto;html=1;exitX=0.25;exitY=0;exitDx=0;exitDy=0;entryX=1;entryY=0.5;entryDx=0;entryDy=0;" edge="1" parent="1" source="Olvo123opY4gGVHHoOmb-49" target="Olvo123opY4gGVHHoOmb-51">
          <mxGeometry relative="1" as="geometry">
            <Array as="points">
              <mxPoint x="-130" y="-170" />
              <mxPoint x="-130" y="-240" />
            </Array>
          </mxGeometry>
        </mxCell>
        <mxCell id="Olvo123opY4gGVHHoOmb-45" style="edgeStyle=orthogonalEdgeStyle;rounded=0;orthogonalLoop=1;jettySize=auto;html=1;exitX=0.5;exitY=0;exitDx=0;exitDy=0;entryX=0.66;entryY=1.014;entryDx=0;entryDy=0;entryPerimeter=0;" edge="1" parent="1" source="Olvo123opY4gGVHHoOmb-49" target="Olvo123opY4gGVHHoOmb-53">
          <mxGeometry relative="1" as="geometry">
            <Array as="points">
              <mxPoint x="-90" y="-290" />
              <mxPoint x="-134" y="-290" />
            </Array>
          </mxGeometry>
        </mxCell>
        <mxCell id="Olvo123opY4gGVHHoOmb-46" style="edgeStyle=orthogonalEdgeStyle;rounded=0;orthogonalLoop=1;jettySize=auto;html=1;exitX=0.25;exitY=1;exitDx=0;exitDy=0;entryX=1;entryY=0;entryDx=0;entryDy=0;" edge="1" parent="1" source="Olvo123opY4gGVHHoOmb-49" target="Olvo123opY4gGVHHoOmb-61">
          <mxGeometry relative="1" as="geometry" />
        </mxCell>
        <mxCell id="Olvo123opY4gGVHHoOmb-47" style="edgeStyle=orthogonalEdgeStyle;rounded=0;orthogonalLoop=1;jettySize=auto;html=1;exitX=1;exitY=0;exitDx=0;exitDy=0;entryX=0;entryY=0.5;entryDx=0;entryDy=0;" edge="1" parent="1" source="Olvo123opY4gGVHHoOmb-49" target="Olvo123opY4gGVHHoOmb-54">
          <mxGeometry relative="1" as="geometry" />
        </mxCell>
        <mxCell id="Olvo123opY4gGVHHoOmb-48" style="edgeStyle=orthogonalEdgeStyle;rounded=0;orthogonalLoop=1;jettySize=auto;html=1;entryX=0;entryY=0;entryDx=0;entryDy=0;" edge="1" parent="1" source="Olvo123opY4gGVHHoOmb-49" target="Olvo123opY4gGVHHoOmb-58">
          <mxGeometry relative="1" as="geometry">
            <Array as="points">
              <mxPoint x="-55" y="-90" />
              <mxPoint x="-55" y="-90" />
            </Array>
          </mxGeometry>
        </mxCell>
        <mxCell id="Olvo123opY4gGVHHoOmb-49" value="Account" style="rounded=1;arcSize=10;whiteSpace=wrap;html=1;align=center;" vertex="1" parent="1">
          <mxGeometry x="-140" y="-170" width="100" height="40" as="geometry" />
        </mxCell>
        <mxCell id="Olvo123opY4gGVHHoOmb-50" value="&amp;nbsp; id&amp;nbsp;&amp;nbsp;" style="ellipse;whiteSpace=wrap;html=1;align=center;fontStyle=4;" vertex="1" parent="1">
          <mxGeometry x="-310" y="-210" width="100" height="40" as="geometry" />
        </mxCell>
        <mxCell id="Olvo123opY4gGVHHoOmb-51" value="&lt;span style=&quot;border-bottom: 1px dotted&quot;&gt;userId&lt;/span&gt;" style="ellipse;whiteSpace=wrap;html=1;align=center;" vertex="1" parent="1">
          <mxGeometry x="-290" y="-260" width="100" height="40" as="geometry" />
        </mxCell>
        <mxCell id="Olvo123opY4gGVHHoOmb-52" value="provider" style="ellipse;whiteSpace=wrap;html=1;align=center;" vertex="1" parent="1">
          <mxGeometry x="-260" y="-320" width="100" height="40" as="geometry" />
        </mxCell>
        <mxCell id="Olvo123opY4gGVHHoOmb-53" value="type" style="ellipse;whiteSpace=wrap;html=1;align=center;" vertex="1" parent="1">
          <mxGeometry x="-200" y="-360" width="100" height="40" as="geometry" />
        </mxCell>
        <mxCell id="Olvo123opY4gGVHHoOmb-54" value="expire_at" style="ellipse;whiteSpace=wrap;html=1;align=center;" vertex="1" parent="1">
          <mxGeometry x="10" y="-210" width="100" height="40" as="geometry" />
        </mxCell>
        <mxCell id="Olvo123opY4gGVHHoOmb-55" value="token_type" style="ellipse;whiteSpace=wrap;html=1;align=center;" vertex="1" parent="1">
          <mxGeometry x="30" y="-110" width="100" height="40" as="geometry" />
        </mxCell>
        <mxCell id="Olvo123opY4gGVHHoOmb-56" value="access_token" style="ellipse;whiteSpace=wrap;html=1;align=center;" vertex="1" parent="1">
          <mxGeometry x="-25" y="-310" width="100" height="40" as="geometry" />
        </mxCell>
        <mxCell id="Olvo123opY4gGVHHoOmb-57" value="providerAccountId" style="ellipse;whiteSpace=wrap;html=1;align=center;" vertex="1" parent="1">
          <mxGeometry x="-110" y="-340" width="100" height="40" as="geometry" />
        </mxCell>
        <mxCell id="Olvo123opY4gGVHHoOmb-58" value="scope" style="ellipse;whiteSpace=wrap;html=1;align=center;" vertex="1" parent="1">
          <mxGeometry x="-70" y="-80" width="100" height="40" as="geometry" />
        </mxCell>
        <mxCell id="Olvo123opY4gGVHHoOmb-59" value="refresh_token" style="ellipse;whiteSpace=wrap;html=1;align=center;" vertex="1" parent="1">
          <mxGeometry x="-10" y="-260" width="100" height="40" as="geometry" />
        </mxCell>
        <mxCell id="Olvo123opY4gGVHHoOmb-60" value="id_token" style="ellipse;whiteSpace=wrap;html=1;align=center;" vertex="1" parent="1">
          <mxGeometry x="-310" y="-100" width="100" height="40" as="geometry" />
        </mxCell>
        <mxCell id="Olvo123opY4gGVHHoOmb-61" value="session_state" style="ellipse;whiteSpace=wrap;html=1;align=center;" vertex="1" parent="1">
          <mxGeometry x="-200" y="-80" width="100" height="40" as="geometry" />
        </mxCell>
        <mxCell id="Olvo123opY4gGVHHoOmb-62" style="edgeStyle=orthogonalEdgeStyle;rounded=0;orthogonalLoop=1;jettySize=auto;html=1;exitX=0.75;exitY=0;exitDx=0;exitDy=0;entryX=1;entryY=1;entryDx=0;entryDy=0;" edge="1" parent="1" source="Olvo123opY4gGVHHoOmb-49" target="Olvo123opY4gGVHHoOmb-52">
          <mxGeometry relative="1" as="geometry">
            <Array as="points">
              <mxPoint x="-110" y="-170" />
              <mxPoint x="-110" y="-270" />
              <mxPoint x="-175" y="-270" />
            </Array>
          </mxGeometry>
        </mxCell>
        <mxCell id="Olvo123opY4gGVHHoOmb-63" style="edgeStyle=orthogonalEdgeStyle;rounded=0;orthogonalLoop=1;jettySize=auto;html=1;entryX=0.037;entryY=0.771;entryDx=0;entryDy=0;entryPerimeter=0;exitX=0.803;exitY=-0.005;exitDx=0;exitDy=0;exitPerimeter=0;" edge="1" parent="1" source="Olvo123opY4gGVHHoOmb-49" target="Olvo123opY4gGVHHoOmb-56">
          <mxGeometry relative="1" as="geometry">
            <Array as="points">
              <mxPoint x="-60" y="-240" />
              <mxPoint x="-21" y="-240" />
            </Array>
            <mxPoint x="-50" y="-170" as="sourcePoint" />
          </mxGeometry>
        </mxCell>
        <mxCell id="Olvo123opY4gGVHHoOmb-64" style="edgeStyle=orthogonalEdgeStyle;rounded=0;orthogonalLoop=1;jettySize=auto;html=1;exitX=1;exitY=1;exitDx=0;exitDy=0;entryX=0.019;entryY=0.414;entryDx=0;entryDy=0;entryPerimeter=0;" edge="1" parent="1" source="Olvo123opY4gGVHHoOmb-49" target="Olvo123opY4gGVHHoOmb-55">
          <mxGeometry relative="1" as="geometry">
            <Array as="points">
              <mxPoint x="-40" y="-110" />
              <mxPoint x="32" y="-110" />
            </Array>
          </mxGeometry>
        </mxCell>
        <mxCell id="Olvo123opY4gGVHHoOmb-65" style="edgeStyle=orthogonalEdgeStyle;rounded=0;orthogonalLoop=1;jettySize=auto;html=1;exitX=0;exitY=1;exitDx=0;exitDy=0;entryX=1;entryY=0.25;entryDx=0;entryDy=0;entryPerimeter=0;" edge="1" parent="1" source="Olvo123opY4gGVHHoOmb-49" target="Olvo123opY4gGVHHoOmb-60">
          <mxGeometry relative="1" as="geometry" />
        </mxCell>
        <mxCell id="Olvo123opY4gGVHHoOmb-66" style="edgeStyle=orthogonalEdgeStyle;rounded=0;orthogonalLoop=1;jettySize=auto;html=1;exitX=0;exitY=0.5;exitDx=0;exitDy=0;entryX=1;entryY=0.5;entryDx=0;entryDy=0;" edge="1" parent="1" source="Olvo123opY4gGVHHoOmb-69" target="Olvo123opY4gGVHHoOmb-72">
          <mxGeometry relative="1" as="geometry" />
        </mxCell>
        <mxCell id="Olvo123opY4gGVHHoOmb-67" style="edgeStyle=orthogonalEdgeStyle;rounded=0;orthogonalLoop=1;jettySize=auto;html=1;exitX=0.25;exitY=0;exitDx=0;exitDy=0;entryX=1;entryY=1;entryDx=0;entryDy=0;" edge="1" parent="1" source="Olvo123opY4gGVHHoOmb-69" target="Olvo123opY4gGVHHoOmb-70">
          <mxGeometry relative="1" as="geometry" />
        </mxCell>
        <mxCell id="Olvo123opY4gGVHHoOmb-68" style="edgeStyle=orthogonalEdgeStyle;rounded=0;orthogonalLoop=1;jettySize=auto;html=1;exitX=0.75;exitY=0;exitDx=0;exitDy=0;entryX=0;entryY=0.5;entryDx=0;entryDy=0;" edge="1" parent="1" source="Olvo123opY4gGVHHoOmb-69" target="Olvo123opY4gGVHHoOmb-73">
          <mxGeometry relative="1" as="geometry" />
        </mxCell>
        <mxCell id="Olvo123opY4gGVHHoOmb-69" value="session" style="rounded=1;arcSize=10;whiteSpace=wrap;html=1;align=center;" vertex="1" parent="1">
          <mxGeometry x="-60" y="-600" width="100" height="40" as="geometry" />
        </mxCell>
        <mxCell id="Olvo123opY4gGVHHoOmb-70" value="sessionToken" style="ellipse;whiteSpace=wrap;html=1;align=center;" vertex="1" parent="1">
          <mxGeometry x="-150" y="-680" width="100" height="40" as="geometry" />
        </mxCell>
        <mxCell id="Olvo123opY4gGVHHoOmb-71" value="expires" style="ellipse;whiteSpace=wrap;html=1;align=center;" vertex="1" parent="1">
          <mxGeometry x="-40" y="-700" width="100" height="40" as="geometry" />
        </mxCell>
        <mxCell id="Olvo123opY4gGVHHoOmb-72" value="&amp;nbsp; id&amp;nbsp;&amp;nbsp;" style="ellipse;whiteSpace=wrap;html=1;align=center;fontStyle=4;" vertex="1" parent="1">
          <mxGeometry x="-210" y="-640" width="100" height="40" as="geometry" />
        </mxCell>
        <mxCell id="Olvo123opY4gGVHHoOmb-73" value="&lt;span style=&quot;border-bottom: 1px dotted&quot;&gt;userId&lt;/span&gt;" style="ellipse;whiteSpace=wrap;html=1;align=center;" vertex="1" parent="1">
          <mxGeometry x="50" y="-660" width="100" height="40" as="geometry" />
        </mxCell>
        <mxCell id="Olvo123opY4gGVHHoOmb-74" style="edgeStyle=orthogonalEdgeStyle;rounded=0;orthogonalLoop=1;jettySize=auto;html=1;entryX=0.3;entryY=1;entryDx=0;entryDy=0;entryPerimeter=0;" edge="1" parent="1" source="Olvo123opY4gGVHHoOmb-69" target="Olvo123opY4gGVHHoOmb-71">
          <mxGeometry relative="1" as="geometry" />
        </mxCell>
        <mxCell id="Olvo123opY4gGVHHoOmb-85" value="name" style="ellipse;whiteSpace=wrap;html=1;align=center;" vertex="1" parent="1">
          <mxGeometry x="190" y="-340" width="100" height="40" as="geometry" />
        </mxCell>
        <mxCell id="Olvo123opY4gGVHHoOmb-86" style="edgeStyle=orthogonalEdgeStyle;rounded=0;orthogonalLoop=1;jettySize=auto;html=1;entryX=0;entryY=0.5;entryDx=0;entryDy=0;" edge="1" parent="1" source="Olvo123opY4gGVHHoOmb-90" target="Olvo123opY4gGVHHoOmb-215">
          <mxGeometry relative="1" as="geometry" />
        </mxCell>
        <mxCell id="Olvo123opY4gGVHHoOmb-87" style="edgeStyle=orthogonalEdgeStyle;rounded=0;orthogonalLoop=1;jettySize=auto;html=1;" edge="1" parent="1" source="Olvo123opY4gGVHHoOmb-90">
          <mxGeometry relative="1" as="geometry">
            <mxPoint x="570" y="-270" as="targetPoint" />
            <Array as="points">
              <mxPoint x="550" y="-270" />
            </Array>
          </mxGeometry>
        </mxCell>
        <mxCell id="Olvo123opY4gGVHHoOmb-88" style="edgeStyle=orthogonalEdgeStyle;rounded=0;orthogonalLoop=1;jettySize=auto;html=1;entryX=0;entryY=0.5;entryDx=0;entryDy=0;" edge="1" parent="1" source="Olvo123opY4gGVHHoOmb-90" target="Olvo123opY4gGVHHoOmb-213">
          <mxGeometry relative="1" as="geometry">
            <Array as="points">
              <mxPoint x="540" y="-240" />
            </Array>
          </mxGeometry>
        </mxCell>
        <mxCell id="Olvo123opY4gGVHHoOmb-89" style="edgeStyle=orthogonalEdgeStyle;rounded=0;orthogonalLoop=1;jettySize=auto;html=1;entryX=0;entryY=0.5;entryDx=0;entryDy=0;" edge="1" parent="1" source="Olvo123opY4gGVHHoOmb-90" target="Olvo123opY4gGVHHoOmb-212">
          <mxGeometry relative="1" as="geometry" />
        </mxCell>
        <mxCell id="Olvo123opY4gGVHHoOmb-90" value="address" style="ellipse;whiteSpace=wrap;html=1;align=center;" vertex="1" parent="1">
          <mxGeometry x="480" y="-330" width="100" height="40" as="geometry" />
        </mxCell>
        <mxCell id="Olvo123opY4gGVHHoOmb-91" style="edgeStyle=orthogonalEdgeStyle;rounded=0;orthogonalLoop=1;jettySize=auto;html=1;exitX=0;exitY=0.75;exitDx=0;exitDy=0;" edge="1" parent="1" source="Olvo123opY4gGVHHoOmb-34" target="Olvo123opY4gGVHHoOmb-85">
          <mxGeometry relative="1" as="geometry">
            <mxPoint x="310" y="-320" as="targetPoint" />
            <Array as="points">
              <mxPoint x="310" y="-347" />
              <mxPoint x="310" y="-320" />
            </Array>
          </mxGeometry>
        </mxCell>
        <mxCell id="Olvo123opY4gGVHHoOmb-112" value="has" style="shape=rhombus;perimeter=rhombusPerimeter;whiteSpace=wrap;html=1;align=center;" vertex="1" parent="1">
          <mxGeometry x="140" y="-210" width="120" height="60" as="geometry" />
        </mxCell>
        <mxCell id="Olvo123opY4gGVHHoOmb-113" value="" style="edgeStyle=orthogonalEdgeStyle;fontSize=12;html=1;endArrow=ERmandOne;rounded=0;exitX=1;exitY=0.5;exitDx=0;exitDy=0;" edge="1" parent="1" source="Olvo123opY4gGVHHoOmb-112">
          <mxGeometry width="100" height="100" relative="1" as="geometry">
            <mxPoint x="110" y="-250" as="sourcePoint" />
            <mxPoint x="370" y="-340" as="targetPoint" />
          </mxGeometry>
        </mxCell>
        <mxCell id="Olvo123opY4gGVHHoOmb-114" value="" style="edgeStyle=orthogonalEdgeStyle;fontSize=12;html=1;endArrow=ERzeroToOne;endFill=1;rounded=0;" edge="1" parent="1" source="Olvo123opY4gGVHHoOmb-112" target="Olvo123opY4gGVHHoOmb-49">
          <mxGeometry width="100" height="100" relative="1" as="geometry">
            <mxPoint x="170" y="-100" as="sourcePoint" />
            <mxPoint x="270" y="-200" as="targetPoint" />
            <Array as="points">
              <mxPoint x="120" y="-150" />
              <mxPoint x="120" y="-150" />
            </Array>
          </mxGeometry>
        </mxCell>
        <mxCell id="Olvo123opY4gGVHHoOmb-115" style="edgeStyle=orthogonalEdgeStyle;fontSize=12;html=1;endArrow=ERmandOne;rounded=0;exitX=0.5;exitY=1;exitDx=0;exitDy=0;" edge="1" parent="1" source="Olvo123opY4gGVHHoOmb-117" target="Olvo123opY4gGVHHoOmb-34">
          <mxGeometry relative="1" as="geometry">
            <Array as="points">
              <mxPoint x="60" y="-400" />
              <mxPoint x="150" y="-400" />
              <mxPoint x="150" y="-355" />
            </Array>
          </mxGeometry>
        </mxCell>
        <mxCell id="Olvo123opY4gGVHHoOmb-116" style="fontSize=12;html=1;endArrow=ERmandOne;rounded=0;exitX=0.5;exitY=0;exitDx=0;exitDy=0;edgeStyle=orthogonalEdgeStyle;" edge="1" parent="1" source="Olvo123opY4gGVHHoOmb-117" target="Olvo123opY4gGVHHoOmb-69">
          <mxGeometry relative="1" as="geometry" />
        </mxCell>
        <mxCell id="Olvo123opY4gGVHHoOmb-117" value="has" style="shape=rhombus;perimeter=rhombusPerimeter;whiteSpace=wrap;html=1;align=center;" vertex="1" parent="1">
          <mxGeometry y="-490" width="120" height="60" as="geometry" />
        </mxCell>
        <mxCell id="Olvo123opY4gGVHHoOmb-187" style="edgeStyle=orthogonalEdgeStyle;rounded=0;orthogonalLoop=1;jettySize=auto;html=1;entryX=0.1;entryY=0.75;entryDx=0;entryDy=0;entryPerimeter=0;exitX=0.897;exitY=0.006;exitDx=0;exitDy=0;exitPerimeter=0;" edge="1" parent="1" source="Olvo123opY4gGVHHoOmb-49" target="Olvo123opY4gGVHHoOmb-59">
          <mxGeometry relative="1" as="geometry">
            <Array as="points">
              <mxPoint x="-50" y="-230" />
            </Array>
          </mxGeometry>
        </mxCell>
        <mxCell id="Olvo123opY4gGVHHoOmb-191" style="edgeStyle=orthogonalEdgeStyle;rounded=0;orthogonalLoop=1;jettySize=auto;html=1;entryX=0.643;entryY=1.008;entryDx=0;entryDy=0;entryPerimeter=0;" edge="1" parent="1" source="Olvo123opY4gGVHHoOmb-34" target="Olvo123opY4gGVHHoOmb-36">
          <mxGeometry relative="1" as="geometry">
            <Array as="points">
              <mxPoint x="405" y="-435" />
              <mxPoint x="404" y="-435" />
            </Array>
          </mxGeometry>
        </mxCell>
        <mxCell id="Olvo123opY4gGVHHoOmb-192" style="edgeStyle=orthogonalEdgeStyle;rounded=0;orthogonalLoop=1;jettySize=auto;html=1;entryX=0.65;entryY=1;entryDx=0;entryDy=0;entryPerimeter=0;" edge="1" parent="1" source="Olvo123opY4gGVHHoOmb-34" target="Olvo123opY4gGVHHoOmb-39">
          <mxGeometry relative="1" as="geometry">
            <Array as="points">
              <mxPoint x="370" y="-420" />
            </Array>
          </mxGeometry>
        </mxCell>
        <mxCell id="Olvo123opY4gGVHHoOmb-193" style="edgeStyle=orthogonalEdgeStyle;rounded=0;orthogonalLoop=1;jettySize=auto;html=1;entryX=0.382;entryY=1.041;entryDx=0;entryDy=0;entryPerimeter=0;" edge="1" parent="1" source="Olvo123opY4gGVHHoOmb-49" target="Olvo123opY4gGVHHoOmb-57">
          <mxGeometry relative="1" as="geometry">
            <Array as="points">
              <mxPoint x="-72" y="-220" />
              <mxPoint x="-72" y="-220" />
            </Array>
          </mxGeometry>
        </mxCell>
        <mxCell id="Olvo123opY4gGVHHoOmb-212" value="province" style="ellipse;whiteSpace=wrap;html=1;align=center;" vertex="1" parent="1">
          <mxGeometry x="575" y="-220" width="50" height="30" as="geometry" />
        </mxCell>
        <mxCell id="Olvo123opY4gGVHHoOmb-213" value="city" style="ellipse;whiteSpace=wrap;html=1;align=center;" vertex="1" parent="1">
          <mxGeometry x="575" y="-255" width="50" height="30" as="geometry" />
        </mxCell>
        <mxCell id="Olvo123opY4gGVHHoOmb-214" value="st. name" style="ellipse;whiteSpace=wrap;html=1;align=center;" vertex="1" parent="1">
          <mxGeometry x="575" y="-290" width="50" height="30" as="geometry" />
        </mxCell>
        <mxCell id="Olvo123opY4gGVHHoOmb-215" value="postcode" style="ellipse;whiteSpace=wrap;html=1;align=center;" vertex="1" parent="1">
          <mxGeometry x="600" y="-330" width="50" height="30" as="geometry" />
        </mxCell>
      </root>
    </mxGraphModel>
  </diagram>
</mxfile>
